<svg width="40" height="40" viewBox="0 0 40 40" fill="none" xmlns="http://www.w3.org/2000/svg">
<path fill-rule="evenodd" clip-rule="evenodd" d="M20.9036 20.4936H4.77962C4.35005 20.495 4.00132 20.8489 4 21.2863V32.0878C4.00133 32.5251 4.35001 32.8778 4.77962 32.8791H6.83473L7.26033 33.6274L8.60876 36L9.95983 33.6274L10.3854 32.8791H20.9035C21.3331 32.8778 21.6805 32.5238 21.6818 32.0878V21.2863C21.6818 20.849 21.3332 20.495 20.9036 20.4936ZM27.558 34.5384C27.6389 34.5694 27.7038 34.6313 27.7383 34.7107C27.7728 34.7901 27.7754 34.8803 27.7436 34.961C27.7131 35.0418 27.6508 35.1064 27.5712 35.1413C27.493 35.175 27.4042 35.175 27.3246 35.1413L25.3677 34.3648C25.2881 34.3339 25.2245 34.2706 25.1913 34.1926C25.1568 34.1132 25.1555 34.0243 25.186 33.9436L25.951 31.9572H25.9524C26.0173 31.793 26.2003 31.7123 26.3634 31.7769C26.5265 31.8415 26.6073 32.0272 26.5463 32.1927L26.0293 33.5371H26.0279C28.7619 32.5359 31.1247 30.7029 32.7954 28.2887C34.466 25.8744 35.3609 22.9972 35.3609 20.047C35.3676 19.8721 35.5081 19.7335 35.6805 19.7335C35.8528 19.7335 35.9947 19.8721 36 20.047C35.9987 23.0993 35.0799 26.0776 33.3668 28.586C31.6525 31.0932 29.2262 33.0111 26.41 34.0808L27.558 34.5384ZM10.9765 7.88793C10.8094 7.85159 10.6994 7.68741 10.7285 7.5165C10.7577 7.34559 10.9142 7.22716 11.0839 7.25003L13.1562 7.62012V7.61877C13.2398 7.63358 13.3127 7.68203 13.3617 7.75201C13.4108 7.82199 13.4294 7.90946 13.4148 7.99425L13.0515 10.0977L13.0502 10.0964C13.0197 10.2727 12.8553 10.3911 12.6816 10.3602C12.5079 10.3292 12.3925 10.161 12.423 9.98469L12.6511 8.66852V8.66986C11.3915 9.64962 10.303 10.8366 9.43054 12.1823C8.41756 13.7434 7.7175 15.4916 7.37014 17.326C7.33699 17.5023 7.16993 17.6167 6.99623 17.583C6.82387 17.5507 6.70984 17.3812 6.74299 17.2048C7.43378 13.5874 9.4133 10.3547 12.3038 8.12359L10.9765 7.88793ZM16.9561 4H33.0774C33.5069 4.00135 33.8556 4.35527 33.857 4.79268V15.5941C33.8556 16.0302 33.507 16.3841 33.0774 16.3855H31.0236L30.598 17.1351L29.2495 19.5077L27.8998 17.1351L27.4729 16.3868L16.9562 16.3882C16.5253 16.3868 16.1765 16.0315 16.1779 15.5941V4.79268C16.1779 4.35531 16.5265 4.00134 16.9561 4ZM19.4872 13.5874C19.3148 13.5806 19.1782 13.438 19.1782 13.263C19.1782 13.0881 19.3148 12.9441 19.4872 12.9387H30.5476C30.6338 12.9346 30.7173 12.9683 30.7797 13.0289C30.842 13.0908 30.8778 13.1742 30.8778 13.263C30.8778 13.3505 30.842 13.4353 30.7797 13.4958C30.7173 13.5564 30.6338 13.5901 30.5476 13.5874L19.4872 13.5874ZM19.4872 10.4046C19.3148 10.3978 19.1782 10.2552 19.1782 10.0802C19.1782 9.90527 19.3148 9.76127 19.4872 9.75589H30.5476C30.6338 9.75185 30.7173 9.7855 30.7797 9.84606C30.842 9.90796 30.8778 9.9914 30.8778 10.0802C30.8778 10.1677 30.842 10.2525 30.7797 10.313C30.7173 10.3736 30.6338 10.4073 30.5476 10.4046H19.4872ZM19.4872 7.21908C19.3148 7.21369 19.1782 7.06969 19.1782 6.89474C19.1782 6.71979 19.3148 6.57579 19.4872 6.5704H30.5476C30.6338 6.56771 30.7173 6.60001 30.7797 6.66191C30.842 6.72248 30.8778 6.80726 30.8778 6.89474C30.8778 6.98356 30.842 7.067 30.7797 7.1289C30.7173 7.18946 30.6338 7.22176 30.5476 7.21907L19.4872 7.21908ZM18.3721 29.4339C18.4583 29.4312 18.5418 29.4648 18.6041 29.5254C18.6664 29.5859 18.7009 29.6694 18.7009 29.7582C18.7009 29.8457 18.6664 29.9291 18.6041 29.9897C18.5418 30.0516 18.4583 30.0839 18.3721 30.0812H7.31165C7.22547 30.0839 7.14194 30.0516 7.07963 29.9897C7.01731 29.9291 6.98284 29.8457 6.98284 29.7582C6.98284 29.6694 7.01731 29.5859 7.07963 29.5254C7.14194 29.4648 7.22547 29.4312 7.31165 29.4339H18.3721ZM18.3721 26.2484V26.2497C18.4583 26.247 18.5418 26.2793 18.6041 26.3412C18.6664 26.4018 18.7022 26.4866 18.7022 26.5741C18.7022 26.6615 18.6664 26.7463 18.6041 26.8069C18.5418 26.8688 18.4583 26.9011 18.3721 26.8984H7.31165C7.22547 26.9011 7.14061 26.8688 7.0783 26.8069C7.01598 26.7463 6.98151 26.6615 6.98151 26.5741C6.98151 26.4866 7.01598 26.4018 7.0783 26.3412C7.14061 26.2793 7.22547 26.247 7.31165 26.2497L18.3721 26.2484ZM18.3721 23.0656V23.0669C18.5471 23.0669 18.6903 23.2123 18.6903 23.3899C18.6903 23.5689 18.5471 23.7142 18.3721 23.7142H7.31165C7.13531 23.7142 6.99344 23.5689 6.99344 23.3899C6.99344 23.2123 7.13531 23.0669 7.31165 23.0669L18.3721 23.0656Z" fill="black"/>
</svg>
